<?xml version="1.0" encoding="UTF-8"?>
<svg version="1.1" xmlns="http://www.w3.org/2000/svg" width="1024" height="1024">
<path d="M0 0 C4.8778866 0.00637164 9.75577425 0.006848 14.63366437 0.00802541 C23.81599818 0.01109891 32.99831969 0.01925697 42.18064815 0.0293749 C52.6575868 0.0406618 63.13452614 0.04607775 73.61146939 0.05107033 C95.11276591 0.06144427 116.61405145 0.07896416 138.11533856 0.10139394 C138.11533856 3.10139394 138.11533856 3.10139394 136.86533856 4.67951894 C136.28783856 5.23123769 135.71033856 5.78295644 135.11533856 6.35139394 C134.14854169 7.27758534 134.14854169 7.27758534 133.16221356 8.22248769 C130.59253658 10.58129423 127.98093003 12.88370244 125.33799481 15.15998769 C122.78556974 17.38943455 120.29646343 19.68140776 117.80283856 21.97639394 C114.20142686 25.26571632 110.54226582 28.42157029 106.74033856 31.47639394 C101.86639985 35.40631295 97.26474898 39.56696272 92.7056706 43.85285878 C91.93972577 44.57143056 91.93972577 44.57143056 91.15830731 45.30451894 C90.71511151 45.72378652 90.27191571 46.14305409 89.81528974 46.57502675 C88.97381391 47.33057851 88.97381391 47.33057851 88.11533856 48.10139394 C87.39196805 48.94492925 86.66859754 49.78846456 85.9233067 50.65756154 C80.77307806 54.88524145 73.79426116 53.78402392 67.48789716 53.72907948 C65.98925124 53.7342614 64.4906116 53.74166381 62.99198651 53.75111318 C59.77034481 53.76665827 56.54922353 53.76651826 53.32756925 53.75410962 C48.22408226 53.73452508 43.12105521 53.74979422 38.01759076 53.76956105 C29.93594575 53.79670407 21.85448859 53.80020481 13.772807 53.79378802 C-0.67434945 53.78286072 -15.12144759 53.80761078 -29.56854641 53.84753567 C-34.63150621 53.8605399 -39.69429338 53.86190484 -44.75726128 53.85340273 C-47.92195946 53.8497514 -51.08661445 53.85410865 -54.25130725 53.86024404 C-55.70725043 53.86132018 -57.1632011 53.85902217 -58.6191318 53.85289884 C-75.39981362 53.46086109 -75.39981362 53.46086109 -90.16591144 60.27326894 C-96.0974796 66.58230053 -97.66057416 73.46437421 -99.82216144 81.72639394 C-100.16981079 83.02962952 -100.51812366 84.33268828 -100.86708331 85.63557363 C-101.56107827 88.23657028 -102.24740449 90.83940931 -102.9271419 93.44416738 C-103.77446486 96.68050033 -104.64062895 99.91096719 -105.51356769 103.14045644 C-105.97212332 104.87703379 -106.42927139 106.61398377 -106.88466144 108.35139394 C-107.09211993 109.11661366 -107.29957843 109.88183339 -107.51332355 110.67024159 C-108.78382813 115.66456238 -109.83886874 120.96868207 -108.88466144 126.10139394 C-106.50271955 129.6979542 -102.89338972 130.12327989 -98.88466144 131.10139394 C-95.47071324 131.39904296 -95.47071324 131.39904296 -91.93055987 131.360183 C-91.27421054 131.36368764 -90.6178612 131.36719228 -89.9416225 131.37080312 C-87.79231641 131.37953598 -85.64334533 131.37379876 -83.49403644 131.36701894 C-81.98339534 131.36836866 -80.47275467 131.37031175 -78.96211505 131.37281728 C-75.80165209 131.37575768 -72.64130256 131.37150835 -69.48085284 131.36213613 C-65.45876586 131.35078146 -61.43694704 131.35728254 -57.41487002 131.36928105 C-54.29532671 131.37656266 -51.17584527 131.37418239 -48.05629992 131.36902547 C-46.57495092 131.36770428 -45.09359604 131.36928213 -43.6122539 131.37398458 C-27.35795571 132.00231727 -27.35795571 132.00231727 -13.50966144 124.95295644 C-11.02317995 122.11980205 -8.70323571 119.18306335 -6.46278644 116.15217519 C-2.950143 111.58747766 -0.56334841 110.63388728 5.11533856 109.10139394 C3.57557858 109.10472486 3.57557858 109.10472486 2.00471234 109.10812306 C-7.67664005 109.12840873 -17.35798811 109.14339224 -27.03935695 109.15320611 C-32.01644663 109.15842114 -36.99351914 109.16549375 -41.97059894 109.17683339 C-46.77516481 109.18771128 -51.57971417 109.19368118 -56.38429141 109.19627118 C-58.21587008 109.19811659 -60.04744787 109.20172019 -61.8790195 109.20712399 C-64.44748891 109.21439945 -67.01589038 109.21538213 -69.58436847 109.21491933 C-70.71617793 109.22031224 -70.71617793 109.22031224 -71.87085223 109.2258141 C-75.98178441 109.21781669 -79.85168096 108.90255849 -83.88466144 108.10139394 C-80.10294517 104.06756325 -75.95345866 100.68741715 -71.61513019 97.26545644 C-68.90588039 95.11821125 -66.23706131 92.9283404 -63.57216144 90.72639394 C-62.63114581 89.98647206 -61.69013019 89.24655019 -60.72059894 88.48420644 C-57.82405039 86.16572745 -57.82405039 86.16572745 -55.42372394 83.34358144 C-48.18999634 76.06839981 -41.6194169 75.39880433 -31.57606769 75.32014394 C-30.19138924 75.29450929 -28.80673532 75.26752176 -27.4221065 75.23933339 C-22.57642144 75.15279162 -17.73101493 75.12343357 -12.88466144 75.10139394 C-11.95885901 75.0967513 -11.03305659 75.09210866 -10.07919955 75.08732533 C5.9441017 75.01287388 21.9670279 75.05198951 37.99033856 75.10139394 C45.81281607 75.12510011 53.63527526 75.14533405 61.45778012 75.15733266 C64.56117952 75.16379739 67.66451698 75.17627806 70.76789594 75.18904042 C72.6452656 75.19266771 74.52263581 75.19602008 76.40000653 75.19905019 C77.68836911 75.20679967 77.68836911 75.20679967 79.00275922 75.21470571 C83.19236687 75.33125951 83.19236687 75.33125951 87.11533856 74.10139394 C88.10533856 74.76139394 89.09533856 75.42139394 90.11533856 76.10139394 C86.88019146 81.0400726 83.46009536 85.82537576 79.99033856 90.60139394 C78.82077154 92.21576273 77.65150345 93.83034813 76.48252606 95.44514394 C75.90857099 96.23791738 75.33461591 97.03069081 74.74326825 97.84748769 C72.11894387 101.4809254 69.51802104 105.13088407 66.91880536 108.78230214 C64.64929094 111.96633606 62.36509096 115.1389014 60.06455731 118.30061269 C53.70648682 127.04548189 47.47681698 135.85805399 41.42857099 144.82087636 C38.79313319 148.71391776 36.09911501 152.46294924 33.11533856 156.10139394 C32.5365495 156.89158925 31.95776044 157.68178456 31.36143231 158.49592519 C23.92744571 168.43466754 14.93875148 173.80676966 4.11143231 179.40998769 C3.11699109 179.92660466 2.12254987 180.44322164 1.09797406 180.97549367 C-12.27927128 187.89549407 -25.77482054 194.58193357 -39.25966144 201.28889394 C-44.47709456 203.88397162 -49.69365599 206.4807811 -54.90809894 209.08186269 C-55.84336256 209.54824493 -55.84336256 209.54824493 -56.7975204 210.02404904 C-64.75642736 213.9960663 -72.66579308 218.04612344 -80.50601459 222.24787831 C-86.15668184 225.27096231 -91.89586032 228.06869622 -97.69716144 230.78889394 C-104.80640793 234.14257815 -111.85292246 237.54584218 -118.77528644 241.27326894 C-120.88466144 242.10139394 -120.88466144 242.10139394 -123.88466144 241.10139394 C-123.04161456 240.19776113 -122.19856769 239.29412831 -121.32997394 238.36311269 C-120.22309305 237.17180868 -119.11632827 235.98039679 -118.00966144 234.78889394 C-117.17628253 233.89654042 -117.17628253 233.89654042 -116.32606769 232.98615956 C-115.79110675 232.40930409 -115.25614581 231.83244863 -114.70497394 231.23811269 C-114.21271319 230.70919423 -113.72045245 230.18027577 -113.21327472 229.63532948 C-111.67884347 227.92858159 -111.67884347 227.92858159 -109.88466144 225.10139394 C-109.22466144 225.10139394 -108.56466144 225.10139394 -107.88466144 225.10139394 C-107.62684894 224.52905019 -107.36903644 223.95670644 -107.10341144 223.36701894 C-105.77100202 220.89010399 -104.23410026 218.96727733 -102.38466144 216.85139394 C-101.77622394 216.14498769 -101.16778644 215.43858144 -100.54091144 214.71076894 C-98.88466144 213.10139394 -98.88466144 213.10139394 -96.88466144 213.10139394 C-96.669388 212.55740956 -96.45411456 212.01342519 -96.23231769 211.45295644 C-94.42086503 208.29210281 -91.92970121 205.97375597 -89.32216144 203.47639394 C-85.65752127 200.13736492 -85.65752127 200.13736492 -82.88466144 196.10139394 C-82.22466144 196.10139394 -81.56466144 196.10139394 -80.88466144 196.10139394 C-80.61911456 195.51873769 -80.35356769 194.93608144 -80.07997394 194.33576894 C-78.85163147 192.03965165 -77.48151205 190.29783376 -75.75966144 188.35139394 C-75.22083331 187.73780019 -74.68200519 187.12420644 -74.12684894 186.49201894 C-73.71692706 186.03311269 -73.30700519 185.57420644 -72.88466144 185.10139394 C-73.72831759 185.11027638 -74.57197375 185.11915883 -75.44119525 185.12831044 C-83.45676451 185.20901347 -91.47219408 185.26963812 -99.48807883 185.30864263 C-103.60751228 185.32937053 -107.72660541 185.35741106 -111.84584308 185.40315175 C-115.83351601 185.44714601 -119.8208651 185.47064173 -123.80876231 185.48090291 C-125.31755862 185.48819959 -126.82634056 185.5024428 -128.33499599 185.52431417 C-145.15755728 185.75812477 -160.62420668 182.51758592 -173.69716144 171.03889394 C-181.8742025 162.19884954 -185.19154826 150.9168932 -185.05897784 139.14582753 C-184.74364802 133.63859666 -183.6682858 128.31181675 -182.57216144 122.91389394 C-182.18761798 120.98005849 -182.18761798 120.98005849 -181.79530597 119.00715566 C-179.36716509 106.9556743 -176.69472327 94.95360068 -173.98930621 82.96183705 C-173.50574208 80.81758234 -173.02473315 78.67274968 -172.54637408 76.52732778 C-171.86442811 73.47933787 -171.1694476 70.43460989 -170.47059894 67.39045644 C-170.26964114 66.48527776 -170.06868335 65.58009908 -169.86163592 64.64749074 C-167.47996659 54.42872121 -163.18730068 46.43984143 -156.88466144 38.10139394 C-156.44638019 37.49553456 -156.00809894 36.88967519 -155.55653644 36.26545644 C-139.27125784 15.3692857 -110.6942627 7.46430959 -85.88466144 3.10139394 C-84.0709505 2.77848378 -84.0709505 2.77848378 -82.22059894 2.44905019 C-73.65927837 1.17138034 -65.08869291 0.8372727 -56.4469173 0.5567162 C-55.78588563 0.53523806 -55.12485396 0.51375991 -54.44379103 0.49163091 C-36.29911087 -0.08063717 -18.15169254 -0.02783803 0 0 Z M6.11533856 108.10139394 C10.11533856 109.10139394 10.11533856 109.10139394 10.11533856 109.10139394 Z " fill="#23D799" transform="translate(540.8846614360809,382.8986060619354)"/>
<path d="M0 0 C0.33 0.99 0.66 1.98 1 3 C-0.17391989 3.00496522 -0.17391989 3.00496522 -1.37155533 3.01003075 C-20.45295779 3.09140675 -39.53428085 3.18354655 -58.61557388 3.28752708 C-67.8433086 3.33755519 -77.07103487 3.38399889 -86.29882812 3.421875 C-94.34588715 3.45491394 -102.39287866 3.49481009 -110.43986297 3.54279006 C-114.69692779 3.56793724 -118.9539485 3.58975266 -123.2110672 3.60334396 C-127.22641887 3.61627207 -131.24161837 3.63843966 -135.25688553 3.66738319 C-136.72248045 3.6763757 -138.18809982 3.68212946 -139.65372086 3.68421364 C-156.77147484 3.30822466 -156.77147484 3.30822466 -171.4765625 10.7578125 C-173 12 -173 12 -175 12 C-173.47661994 7.73453584 -170.86637861 6.17923158 -167 4 C-159.2166899 0.34019467 -151.34229943 0.59931898 -142.9050293 0.67529297 C-141.39297135 0.67778012 -139.8809107 0.67892327 -138.36885071 0.67883301 C-134.2864801 0.68222648 -130.20438925 0.7039264 -126.12210059 0.72874975 C-121.84255649 0.75132044 -117.56299499 0.75593235 -113.28340149 0.76223755 C-105.18522989 0.77669309 -97.08718334 0.80559961 -88.98907644 0.84048474 C-74.47323938 0.90254361 -59.9573269 0.93999843 -45.44139606 0.97207749 C-40.34862924 0.98390686 -35.25593528 1.00209236 -30.16320932 1.02559257 C-27.00001753 1.03941404 -23.83682151 1.04926739 -20.67361259 1.05822754 C-19.20623811 1.06329793 -17.7388685 1.07012512 -16.27151108 1.07883072 C-14.2699928 1.09051557 -12.26843858 1.09546701 -10.26689148 1.10006714 C-8.58648285 1.10729451 -8.58648285 1.10729451 -6.87212658 1.11466789 C-4.39521369 1.01577866 -2.35773209 0.72381171 0 0 Z " fill="#22CC8C" transform="translate(622,433)"/>
<path d="M0 0 C0 0.66 0 1.32 0 2 C-7.50455706 5.81014478 -15.01442107 9.60952755 -22.53134632 13.39520359 C-26.02140329 15.15329161 -29.50949842 16.91506025 -32.9934082 18.68530273 C-36.35418489 20.39280829 -39.71972053 22.09056182 -43.08881187 23.78159904 C-44.37480495 24.42922311 -45.6590293 25.08037147 -46.9414463 25.73504829 C-48.73467972 26.64974998 -50.53479669 27.55091899 -52.33520508 28.45141602 C-53.87075798 29.22751976 -53.87075798 29.22751976 -55.43733215 30.01930237 C-58 31 -58 31 -61 30 C-60.46109131 29.71801758 -59.92218262 29.43603516 -59.36694336 29.14550781 C-56.88975519 27.84835042 -54.41362315 26.54918916 -51.9375 25.25 C-51.08994141 24.8065625 -50.24238281 24.363125 -49.36914062 23.90625 C-45.645997 21.95124022 -41.94320078 19.98860858 -38.31640625 17.859375 C-34.95074036 15.97238211 -31.55522087 14.49405321 -28 13 C-25.37571366 11.74788509 -22.78169162 10.43813263 -20.1875 9.125 C-19.49188965 8.77566406 -18.7962793 8.42632813 -18.07958984 8.06640625 C-14.98357215 6.51086364 -11.89316432 4.94533989 -8.80859375 3.3671875 C-7.92300781 2.91601562 -7.03742187 2.46484375 -6.125 2 C-5.36445312 1.608125 -4.60390625 1.21625 -3.8203125 0.8125 C-2 0 -2 0 0 0 Z " fill="#27CE91" transform="translate(530,568)"/>
<path d="M0 0 C2.39696572 3.59544858 2.45460189 5.91059275 2.875 10.1875 C4.16600752 21.14344151 8.46433106 28.79262349 17.171875 35.73046875 C21.89472939 39.02832397 26.53434592 41.21124048 32 43 C32 43.33 32 43.66 32 44 C23.92758872 44.58773871 18.20706322 40.08833106 11.9140625 35.46875 C5.21728084 29.52952282 0.10674588 20.54048177 -0.4375 11.53515625 C-0.50572084 7.67029712 -0.3151073 3.85131141 0 0 Z " fill="#27CB8F" transform="translate(357,520)"/>
<path d="M0 0 C-1.50457906 3.76565039 -3.63416567 5.54295677 -6.8125 8 C-11.97191068 12.08538316 -16.77824291 16.42519568 -21.49536133 21.01367188 C-24.48510347 23.85596314 -27.03807985 25.77926077 -31 27 C-29.48147523 23.16054818 -27.22197262 21.32508945 -24 18.8125 C-20.05024545 15.65999142 -16.16308266 12.47095774 -12.375 9.125 C-11.55773437 8.40570313 -10.74046875 7.68640625 -9.8984375 6.9453125 C-7.77515299 5.05258147 -7.77515299 5.05258147 -7 2 C-4.56723614 0.81480735 -2.71982714 0 0 0 Z " fill="#27D092" transform="translate(655,406)"/>
<path d="M0 0 C0.99 0.33 1.98 0.66 3 1 C1.61999389 2.87137192 0.22876083 4.73285867 -1.17578125 6.5859375 C-2.39822648 8.20364875 -3.6039083 9.83415656 -4.79296875 11.4765625 C-10.65825529 19.28888231 -17.69247333 25.64593634 -27 29 C-25.69954364 25.09863091 -24.08176649 24.50712631 -20.625 22.375 C-19.64789062 21.76398437 -18.67078125 21.15296875 -17.6640625 20.5234375 C-15 19 -15 19 -12 18 C-11.29287385 16.68767579 -10.63834268 15.34712317 -10 14 C-8.35917353 11.53508789 -6.61386497 9.14641895 -4.875 6.75 C-4.17310547 5.77546875 -4.17310547 5.77546875 -3.45703125 4.78125 C-2.30725718 3.18564517 -1.15397434 1.59256975 0 0 Z " fill="#2ACE92" transform="translate(577,530)"/>
<path d="M0 0 C0.66 0.33 1.32 0.66 2 1 C1.14535156 1.77085937 0.29070312 2.54171875 -0.58984375 3.3359375 C-1.70587076 4.34880235 -2.82174844 5.36183173 -3.9375 6.375 C-4.78344727 7.13683594 -4.78344727 7.13683594 -5.64648438 7.9140625 C-8.73384712 10.62684887 -8.73384712 10.62684887 -11 14 C-10.34 13.67 -9.68 13.34 -9 13 C-6.62216895 13.08838461 -4.24654854 13.24346421 -1.875 13.4375 C-0.59367187 13.53933594 0.68765625 13.64117187 2.0078125 13.74609375 C2.99523437 13.82988281 3.98265625 13.91367187 5 14 C5 14.33 5 14.66 5 15 C2.29204274 15.19601027 -0.41599805 15.38204839 -3.125 15.5625 C-3.88554687 15.61857422 -4.64609375 15.67464844 -5.4296875 15.73242188 C-9.79993128 16.01498074 -13.68070669 15.93147699 -18 15 C-12.64911031 9.29238433 -6.50505024 4.33670016 0 0 Z " fill="#23CE90" transform="translate(475,476)"/>
<path d="M0 0 C0.33 0.99 0.66 1.98 1 3 C0.05957031 4.83764648 0.05957031 4.83764648 -1.421875 6.87109375 C-1.95296875 7.61037109 -2.4840625 8.34964844 -3.03125 9.11132812 C-3.5984375 9.87896484 -4.165625 10.64660156 -4.75 11.4375 C-5.30171875 12.20126953 -5.8534375 12.96503906 -6.421875 13.75195312 C-7.9363821 15.84350199 -9.46230678 17.92545307 -11 20 C-11.5146582 20.74258057 -12.02931641 21.48516113 -12.55957031 22.25024414 C-13.03491211 22.82766357 -13.51025391 23.40508301 -14 24 C-14.66 24 -15.32 24 -16 24 C-14.71427532 20.47710665 -13.20776926 17.63299976 -10.99609375 14.609375 C-10.42052734 13.81789063 -9.84496094 13.02640625 -9.25195312 12.2109375 C-8.35379883 10.99277344 -8.35379883 10.99277344 -7.4375 9.75 C-6.83486328 8.92242187 -6.23222656 8.09484375 -5.61132812 7.2421875 C-1.19462386 1.19462386 -1.19462386 1.19462386 0 0 Z " fill="#27CF91" transform="translate(598,501)"/>
<path d="M0 0 C0.99 0 1.98 0 3 0 C1.33749525 4.01528925 -1.42773089 7.01157226 -4.3125 10.1875 C-4.78623047 10.73341797 -5.25996094 11.27933594 -5.74804688 11.84179688 C-8.64080192 15.03530347 -10.6317839 16.72151628 -15 17 C-14.28070312 16.30519531 -13.56140625 15.61039063 -12.8203125 14.89453125 C-9.43659304 11.51438866 -6.51430261 7.78708728 -3.57421875 4.02148438 C-2.44754468 2.62614188 -1.22902059 1.30609476 0 0 Z " fill="#25D091" transform="translate(536,497)"/>
<path d="M0 0 C0.66 0.33 1.32 0.66 2 1 C1.48308594 1.54269531 0.96617187 2.08539062 0.43359375 2.64453125 C-0.55447266 3.71767578 -0.55447266 3.71767578 -1.5625 4.8125 C-2.22378906 5.52019531 -2.88507813 6.22789062 -3.56640625 6.95703125 C-4.03949219 7.63121094 -4.51257813 8.30539062 -5 9 C-4.67 9.99 -4.34 10.98 -4 12 C-6.8125 13.5625 -6.8125 13.5625 -10 15 C-10.99 14.67 -11.98 14.34 -13 14 C-11.02108364 11.85393535 -9.04187901 9.70813786 -7.0625 7.5625 C-6.49853516 6.95083984 -5.93457031 6.33917969 -5.35351562 5.70898438 C-4.81533203 5.12568359 -4.27714844 4.54238281 -3.72265625 3.94140625 C-3.22515869 3.40201416 -2.72766113 2.86262207 -2.21508789 2.30688477 C-1.48918929 1.52614632 -0.75381738 0.75381738 0 0 Z " fill="#2BCE92" transform="translate(430,610)"/>
<path d="M0 0 C0.66 0.33 1.32 0.66 2 1 C-0.81097777 4.45889818 -3.49118127 7.59718517 -7 10.375 C-10.86532759 13.75716164 -13.32749871 17.65007769 -16 22 C-16.33 21.01 -16.66 20.02 -17 19 C-12.78940988 11.37907812 -6.71209829 5.42250533 0 0 Z " fill="#28CD92" transform="translate(396,409)"/>
<path d="M0 0 C0.33 0.99 0.66 1.98 1 3 C-0.52195372 5.52873936 -2.06271854 7.82683409 -3.8125 10.1875 C-4.27720703 10.84169922 -4.74191406 11.49589844 -5.22070312 12.16992188 C-6.42259425 13.8235999 -7.70592265 15.41742075 -9 17 C-9.66 17 -10.32 17 -11 17 C-9.73792344 13.50501876 -8.21507148 10.95342864 -6 8 C-5.690625 7.154375 -5.38125 6.30875 -5.0625 5.4375 C-3.83832039 2.62908794 -2.554023 1.6175479 0 0 Z " fill="#26CE90" transform="translate(621,469)"/>
<path d="M0 0 C0.33 0 0.66 0 1 0 C0.45018084 6.04801071 -0.90429574 11.30601106 -3 17 C-3.33 17 -3.66 17 -4 17 C-3.67373505 10.67721029 -3.38495108 5.44535609 0 0 Z " fill="#25D091" transform="translate(443,449)"/>
<path d="M0 0 C0.66 0.66 1.32 1.32 2 2 C0.78070272 3.30098717 -0.45092452 4.59042437 -1.6875 5.875 C-2.37199219 6.59429687 -3.05648437 7.31359375 -3.76171875 8.0546875 C-6.09591291 10.08335887 -8.08467634 11.02992733 -11 12 C-10.57847656 11.52949219 -10.15695312 11.05898438 -9.72265625 10.57421875 C-8.90087891 9.64029297 -8.90087891 9.64029297 -8.0625 8.6875 C-7.24458984 7.76517578 -7.24458984 7.76517578 -6.41015625 6.82421875 C-4.79918441 4.94758042 -4.79918441 4.94758042 -4 2 C-1.9375 0.8125 -1.9375 0.8125 0 0 Z " fill="#27CC8E" transform="translate(678,383)"/>
<path d="M0 0 C1.65 0.33 3.3 0.66 5 1 C3.28484687 4.59365417 1.65192754 8.00216887 -1 11 C-1.66 11 -2.32 11 -3 11 C-1.92598892 8.08482708 -1.22189824 6.22189824 1 4 C0.6814823 1.89179203 0.6814823 1.89179203 0 0 Z " fill="#2CCE91" transform="translate(626,457)"/>
<path d="M0 0 C0.66 0 1.32 0 2 0 C1.67 4.29 1.34 8.58 1 13 C0.34 13 -0.32 13 -1 13 C-1.07654536 8.48382401 -1.10228696 4.40914783 0 0 Z " fill="#25CF91" transform="translate(368,461)"/>
<path d="M0 0 C0.66 0.66 1.32 1.32 2 2 C0.59248779 2.86916887 -0.8264521 3.71985149 -2.25 4.5625 C-3.03890625 5.03816406 -3.8278125 5.51382813 -4.640625 6.00390625 C-7 7 -7 7 -11 6 C-7.37 4.02 -3.74 2.04 0 0 Z " fill="#2BCF93" transform="translate(448,608)"/>
<path d="M0 0 C0 0.66 0 1.32 0 2 C-1.59766103 2.86627399 -3.20339944 3.71766465 -4.8125 4.5625 C-5.70582031 5.03816406 -6.59914063 5.51382812 -7.51953125 6.00390625 C-10 7 -10 7 -13 6 C-11.21118264 4.99491199 -9.41885304 3.99607264 -7.625 3 C-6.62726563 2.443125 -5.62953125 1.88625 -4.6015625 1.3125 C-2 0 -2 0 0 0 Z " fill="#2ED196" transform="translate(418,397)"/>
<path d="M0 0 C0.33 0.99 0.66 1.98 1 3 C0.07421875 4.82421875 0.07421875 4.82421875 -1.3125 6.6875 C-1.76238281 7.31011719 -2.21226562 7.93273437 -2.67578125 8.57421875 C-3.11277344 9.04472656 -3.54976562 9.51523437 -4 10 C-4.66 10 -5.32 10 -6 10 C-6 6 -6 6 -3.5625 3.3125 C-2.716875 2.549375 -1.87125 1.78625 -1 1 C-0.67 0.67 -0.34 0.34 0 0 Z " fill="#24CF90" transform="translate(606,490)"/>
<path d="M0 0 C0 0.99 0 1.98 0 3 C-5.5 6.125 -5.5 6.125 -10 5 C-6.7 3.35 -3.4 1.7 0 0 Z " fill="#24CD8E" transform="translate(466,599)"/>
<path d="M0 0 C2 1 2 1 2 1 Z " fill="#36DC9D" transform="translate(537,492)"/>
<path d="" fill="#898A88" transform="translate(0,0)"/>
<path d="" fill="#3AD49C" transform="translate(0,0)"/>
<path d="" fill="#40D09A" transform="translate(0,0)"/>
<path d="" fill="#41D29A" transform="translate(0,0)"/>
<path d="" fill="#3ADC9F" transform="translate(0,0)"/>
<path d="" fill="#3DDDA1" transform="translate(0,0)"/>
<path d="" fill="#33DA9E" transform="translate(0,0)"/>
<path d="" fill="#3DD7A0" transform="translate(0,0)"/>
<path d="" fill="#3BD69F" transform="translate(0,0)"/>
<path d="" fill="#43D8A0" transform="translate(0,0)"/>
<path d="" fill="#3BD79F" transform="translate(0,0)"/>
<path d="" fill="#7EA293" transform="translate(0,0)"/>
</svg>
